<svg width="1920" height="1080" viewBox="0 0 1920 1080" fill="none" xmlns="http://www.w3.org/2000/svg">
<g clip-path="url(#clip0_218_2)">
<path opacity="0.7" d="M1500.75 301.5L1499.11 297.85L1499.1 297.854L1499.09 297.859L1500.75 301.5ZM1452.25 309L1448.25 309L1448.25 313L1452.25 313L1452.25 309ZM1452.25 302.5L1452.25 298.5L1448.25 298.5L1448.25 302.5L1452.25 302.5ZM1513.25 262.5L1517.25 262.5L1517.25 250.935L1510.1 260.029L1513.25 262.5ZM1494.25 193C1505.77 193 1515.66 197.068 1522.7 204.63C1529.74 212.209 1534.25 223.66 1534.25 239L1542.25 239C1542.25 222.09 1537.26 208.541 1528.55 199.182C1519.84 189.807 1507.73 185 1494.25 185L1494.25 193ZM1534.25 239C1534.25 266.08 1519.29 288.806 1499.11 297.85L1502.39 305.15C1525.71 294.694 1542.25 268.92 1542.25 239L1534.25 239ZM1499.09 297.859C1488.87 302.505 1473.3 305 1452.25 305L1452.25 313C1473.7 313 1490.63 310.495 1502.41 305.141L1499.09 297.859ZM1456.25 309L1456.25 302.5L1448.25 302.5L1448.25 309L1456.25 309ZM1452.25 306.5C1474.08 306.5 1490.3 302.779 1501.15 295.256C1512.28 287.545 1517.25 276.211 1517.25 262.5L1509.25 262.5C1509.25 274.039 1505.22 282.705 1496.6 288.681C1487.7 294.846 1473.42 298.5 1452.25 298.5L1452.25 306.5ZM1510.1 260.029C1509.92 260.259 1509.31 260.818 1507.95 261.531C1506.67 262.205 1504.99 262.882 1503 263.483C1499.01 264.688 1494.09 265.5 1489.25 265.5L1489.25 273.5C1494.91 273.5 1500.61 272.562 1505.31 271.142C1507.67 270.431 1509.84 269.576 1511.68 268.61C1513.44 267.682 1515.2 266.491 1516.4 264.971L1510.1 260.029ZM1489.25 265.5C1470 265.5 1456.25 250.091 1456.25 230.5L1448.25 230.5C1448.25 253.909 1465 273.5 1489.25 273.5L1489.25 265.5ZM1456.25 230.5C1456.25 219.433 1460.04 210.11 1466.53 203.566C1473.01 197.031 1482.44 193 1494.25 193L1494.25 185C1480.56 185 1468.99 189.719 1460.85 197.934C1452.71 206.14 1448.25 217.567 1448.25 230.5L1456.25 230.5Z" fill="#F39E1D"/>
<path opacity="0.7" d="M434.25 44.5L435.886 48.15L435.896 48.1458L435.905 48.1415L434.25 44.5ZM482.75 37H486.75V33H482.75V37ZM482.75 43.5V47.5H486.75V43.5H482.75ZM421.75 83.5H417.75V95.0653L424.895 85.9713L421.75 83.5ZM440.75 153C429.228 153 419.336 148.932 412.304 141.37C405.257 133.791 400.75 122.34 400.75 107H392.75C392.75 123.91 397.743 137.459 406.446 146.818C415.164 156.193 427.272 161 440.75 161V153ZM400.75 107C400.75 79.9197 415.712 57.1937 435.886 48.15L432.614 40.85C409.288 51.3063 392.75 77.0802 392.75 107H400.75ZM435.905 48.1415C446.128 43.4945 461.698 41 482.75 41V33C461.302 33 444.372 35.5055 432.595 40.8585L435.905 48.1415ZM478.75 37V43.5H486.75V37H478.75ZM482.75 39.5C460.92 39.5 444.701 43.221 433.847 50.7436C422.72 58.4548 417.75 69.7892 417.75 83.5H425.75C425.75 71.9608 429.78 63.2952 438.403 57.3189C447.299 51.154 461.58 47.5 482.75 47.5V39.5ZM424.895 85.9713C425.076 85.7408 425.692 85.1821 427.047 84.4694C428.328 83.7951 430.009 83.1182 432.001 82.5165C435.988 81.3117 440.911 80.5 445.75 80.5V72.5C440.089 72.5 434.387 73.4383 429.687 74.8585C427.334 75.5693 425.157 76.4237 423.321 77.39C421.558 78.3179 419.799 79.5092 418.605 81.0287L424.895 85.9713ZM445.75 80.5C465.002 80.5 478.75 95.9088 478.75 115.5H486.75C486.75 92.0912 469.998 72.5 445.75 72.5V80.5ZM478.75 115.5C478.75 126.567 474.96 135.89 468.472 142.434C461.993 148.969 452.555 153 440.75 153V161C454.445 161 466.007 156.281 474.153 148.066C482.29 139.86 486.75 128.433 486.75 115.5H478.75Z" fill="#F39E1D"/>
</g>
<defs>
<clipPath id="clip0_218_2">
<rect width="1920" height="1080" fill="white"/>
</clipPath>
</defs>
</svg>
