<svg width="1920" height="1080" viewBox="0 0 1920 1080" fill="none" xmlns="http://www.w3.org/2000/svg">
<g clip-path="url(#clip0_218_2)">
<path opacity="0.7" d="M1513.75 301.5L1512.11 297.85L1512.1 297.854L1512.09 297.859L1513.75 301.5ZM1465.25 309L1461.25 309L1461.25 313L1465.25 313L1465.25 309ZM1465.25 302.5L1465.25 298.5L1461.25 298.5L1461.25 302.5L1465.25 302.5ZM1526.25 262.5L1530.25 262.5L1530.25 250.935L1523.1 260.029L1526.25 262.5ZM1507.25 193C1518.77 193 1528.66 197.068 1535.7 204.63C1542.74 212.209 1547.25 223.66 1547.25 239L1555.25 239C1555.25 222.09 1550.26 208.541 1541.55 199.182C1532.84 189.807 1520.73 185 1507.25 185L1507.25 193ZM1547.25 239C1547.25 266.08 1532.29 288.806 1512.11 297.85L1515.39 305.15C1538.71 294.694 1555.25 268.92 1555.25 239L1547.25 239ZM1512.09 297.859C1501.87 302.505 1486.3 305 1465.25 305L1465.25 313C1486.7 313 1503.63 310.495 1515.41 305.141L1512.09 297.859ZM1469.25 309L1469.25 302.5L1461.25 302.5L1461.25 309L1469.25 309ZM1465.25 306.5C1487.08 306.5 1503.3 302.779 1514.15 295.256C1525.28 287.545 1530.25 276.211 1530.25 262.5L1522.25 262.5C1522.25 274.039 1518.22 282.705 1509.6 288.681C1500.7 294.846 1486.42 298.5 1465.25 298.5L1465.25 306.5ZM1523.1 260.029C1522.92 260.259 1522.31 260.818 1520.95 261.531C1519.67 262.205 1517.99 262.882 1516 263.483C1512.01 264.688 1507.09 265.5 1502.25 265.5L1502.25 273.5C1507.91 273.5 1513.61 272.562 1518.31 271.142C1520.67 270.431 1522.84 269.576 1524.68 268.61C1526.44 267.682 1528.2 266.491 1529.4 264.971L1523.1 260.029ZM1502.25 265.5C1483 265.5 1469.25 250.091 1469.25 230.5L1461.25 230.5C1461.25 253.909 1478 273.5 1502.25 273.5L1502.25 265.5ZM1469.25 230.5C1469.25 219.433 1473.04 210.11 1479.53 203.566C1486.01 197.031 1495.44 193 1507.25 193L1507.25 185C1493.56 185 1481.99 189.719 1473.85 197.934C1465.71 206.14 1461.25 217.567 1461.25 230.5L1469.25 230.5Z" fill="#F39E1D"/>
<path opacity="0.7" d="M421.25 44.5L422.886 48.15L422.896 48.1458L422.905 48.1415L421.25 44.5ZM469.75 37H473.75V33H469.75V37ZM469.75 43.5V47.5H473.75V43.5H469.75ZM408.75 83.5H404.75V95.0653L411.895 85.9713L408.75 83.5ZM427.75 153C416.228 153 406.336 148.932 399.304 141.37C392.257 133.791 387.75 122.34 387.75 107H379.75C379.75 123.91 384.743 137.459 393.446 146.818C402.164 156.193 414.272 161 427.75 161V153ZM387.75 107C387.75 79.9197 402.712 57.1937 422.886 48.15L419.614 40.85C396.288 51.3063 379.75 77.0802 379.75 107H387.75ZM422.905 48.1415C433.128 43.4945 448.698 41 469.75 41V33C448.302 33 431.372 35.5055 419.595 40.8585L422.905 48.1415ZM465.75 37V43.5H473.75V37H465.75ZM469.75 39.5C447.92 39.5 431.701 43.221 420.847 50.7436C409.72 58.4548 404.75 69.7892 404.75 83.5H412.75C412.75 71.9608 416.78 63.2952 425.403 57.3189C434.299 51.154 448.58 47.5 469.75 47.5V39.5ZM411.895 85.9713C412.076 85.7408 412.692 85.1821 414.047 84.4694C415.328 83.7951 417.009 83.1182 419.001 82.5165C422.988 81.3117 427.911 80.5 432.75 80.5V72.5C427.089 72.5 421.387 73.4383 416.687 74.8585C414.334 75.5693 412.157 76.4237 410.321 77.39C408.558 78.3179 406.799 79.5092 405.605 81.0287L411.895 85.9713ZM432.75 80.5C452.002 80.5 465.75 95.9088 465.75 115.5H473.75C473.75 92.0912 456.998 72.5 432.75 72.5V80.5ZM465.75 115.5C465.75 126.567 461.96 135.89 455.472 142.434C448.993 148.969 439.555 153 427.75 153V161C441.445 161 453.007 156.281 461.153 148.066C469.29 139.86 473.75 128.433 473.75 115.5H465.75Z" fill="#F39E1D"/>
</g>
<defs>
<clipPath id="clip0_218_2">
<rect width="1920" height="1080" fill="white"/>
</clipPath>
</defs>
</svg>
