<svg width="1280" height="720" viewBox="0 0 1280 720" fill="none" xmlns="http://www.w3.org/2000/svg">
<g clip-path="url(#clip0_233_17)">
<path opacity="0.7" d="M347.25 443.5L348.886 447.15L348.896 447.146L348.905 447.141L347.25 443.5ZM395.75 436H399.75V432H395.75V436ZM395.75 442.5V446.5H399.75V442.5H395.75ZM334.75 482.5H330.75V494.065L337.895 484.971L334.75 482.5ZM353.75 552C342.228 552 332.336 547.932 325.304 540.37C318.257 532.791 313.75 521.34 313.75 506H305.75C305.75 522.91 310.743 536.459 319.446 545.818C328.164 555.193 340.272 560 353.75 560V552ZM313.75 506C313.75 478.92 328.712 456.194 348.886 447.15L345.614 439.85C322.288 450.306 305.75 476.08 305.75 506H313.75ZM348.905 447.141C359.128 442.495 374.698 440 395.75 440V432C374.302 432 357.372 434.505 345.595 439.859L348.905 447.141ZM391.75 436V442.5H399.75V436H391.75ZM395.75 438.5C373.92 438.5 357.701 442.221 346.847 449.744C335.72 457.455 330.75 468.789 330.75 482.5H338.75C338.75 470.961 342.78 462.295 351.403 456.319C360.299 450.154 374.58 446.5 395.75 446.5V438.5ZM337.895 484.971C338.076 484.741 338.692 484.182 340.047 483.469C341.328 482.795 343.009 482.118 345.001 481.517C348.988 480.312 353.911 479.5 358.75 479.5V471.5C353.089 471.5 347.387 472.438 342.687 473.858C340.334 474.569 338.157 475.424 336.321 476.39C334.558 477.318 332.799 478.509 331.605 480.029L337.895 484.971ZM358.75 479.5C378.002 479.5 391.75 494.909 391.75 514.5H399.75C399.75 491.091 382.998 471.5 358.75 471.5V479.5ZM391.75 514.5C391.75 525.567 387.96 534.89 381.472 541.434C374.993 547.969 365.555 552 353.75 552V560C367.445 560 379.007 555.281 387.153 547.066C395.29 538.86 399.75 527.433 399.75 514.5H391.75Z" fill="#F39E1D"/>
<path opacity="0.7" d="M905.75 286.5L904.114 282.85L904.104 282.854L904.095 282.859L905.75 286.5ZM857.25 294L853.25 294L853.25 298L857.25 298L857.25 294ZM857.25 287.5L857.25 283.5L853.25 283.5L853.25 287.5L857.25 287.5ZM918.25 247.5L922.25 247.5L922.25 235.935L915.105 245.029L918.25 247.5ZM899.25 178C910.772 178 920.664 182.068 927.696 189.63C934.743 197.209 939.25 208.66 939.25 224L947.25 224C947.25 207.09 942.257 193.541 933.554 184.182C924.836 174.807 912.728 170 899.25 170L899.25 178ZM939.25 224C939.25 251.08 924.288 273.806 904.114 282.85L907.386 290.15C930.712 279.694 947.25 253.92 947.25 224L939.25 224ZM904.095 282.859C893.872 287.505 878.302 290 857.25 290L857.25 298C878.698 298 895.628 295.495 907.405 290.141L904.095 282.859ZM861.25 294L861.25 287.5L853.25 287.5L853.25 294L861.25 294ZM857.25 291.5C879.08 291.5 895.299 287.779 906.153 280.256C917.28 272.545 922.25 261.211 922.25 247.5L914.25 247.5C914.25 259.039 910.22 267.705 901.597 273.681C892.701 279.846 878.419 283.5 857.25 283.5L857.25 291.5ZM915.105 245.029C914.924 245.259 914.308 245.818 912.953 246.531C911.672 247.205 909.99 247.882 907.999 248.483C904.012 249.688 899.089 250.5 894.25 250.5L894.25 258.5C899.911 258.5 905.613 257.562 910.313 256.142C912.666 255.431 914.843 254.576 916.679 253.61C918.442 252.682 920.201 251.491 921.395 249.971L915.105 245.029ZM894.25 250.5C874.998 250.5 861.25 235.091 861.25 215.5L853.25 215.5C853.25 238.909 870.002 258.5 894.25 258.5L894.25 250.5ZM861.25 215.5C861.25 204.433 865.04 195.11 871.528 188.566C878.007 182.031 887.445 178 899.25 178L899.25 170C885.555 170 873.993 174.719 865.847 182.934C857.71 191.14 853.25 202.567 853.25 215.5L861.25 215.5Z" fill="#F39E1D"/>
</g>
<defs>
<clipPath id="clip0_233_17">
<rect width="1280" height="720" fill="white"/>
</clipPath>
</defs>
</svg>
