<svg width="1366" height="768" viewBox="0 0 1366 768" fill="none" xmlns="http://www.w3.org/2000/svg">
<g clip-path="url(#clip0_233_13)">
<path opacity="0.7" d="M247.25 502.5L248.886 506.15L248.896 506.146L248.905 506.141L247.25 502.5ZM295.75 495H299.75V491H295.75V495ZM295.75 501.5V505.5H299.75V501.5H295.75ZM234.75 541.5H230.75V553.065L237.895 543.971L234.75 541.5ZM253.75 611C242.228 611 232.336 606.932 225.304 599.37C218.257 591.791 213.75 580.34 213.75 565H205.75C205.75 581.91 210.743 595.459 219.446 604.818C228.164 614.193 240.272 619 253.75 619V611ZM213.75 565C213.75 537.92 228.712 515.194 248.886 506.15L245.614 498.85C222.288 509.306 205.75 535.08 205.75 565H213.75ZM248.905 506.141C259.128 501.495 274.698 499 295.75 499V491C274.302 491 257.372 493.505 245.595 498.859L248.905 506.141ZM291.75 495V501.5H299.75V495H291.75ZM295.75 497.5C273.92 497.5 257.701 501.221 246.847 508.744C235.72 516.455 230.75 527.789 230.75 541.5H238.75C238.75 529.961 242.78 521.295 251.403 515.319C260.299 509.154 274.58 505.5 295.75 505.5V497.5ZM237.895 543.971C238.076 543.741 238.692 543.182 240.047 542.469C241.328 541.795 243.009 541.118 245.001 540.517C248.988 539.312 253.911 538.5 258.75 538.5V530.5C253.089 530.5 247.387 531.438 242.687 532.858C240.334 533.569 238.157 534.424 236.321 535.39C234.558 536.318 232.799 537.509 231.605 539.029L237.895 543.971ZM258.75 538.5C278.002 538.5 291.75 553.909 291.75 573.5H299.75C299.75 550.091 282.998 530.5 258.75 530.5V538.5ZM291.75 573.5C291.75 584.567 287.96 593.89 281.472 600.434C274.993 606.969 265.555 611 253.75 611V619C267.445 619 279.007 614.281 287.153 606.066C295.29 597.86 299.75 586.433 299.75 573.5H291.75Z" fill="#F39E1D"/>
<path opacity="0.7" d="M1092.75 258.5L1091.11 254.85L1091.1 254.854L1091.09 254.859L1092.75 258.5ZM1044.25 266L1040.25 266L1040.25 270L1044.25 270L1044.25 266ZM1044.25 259.5L1044.25 255.5L1040.25 255.5L1040.25 259.5L1044.25 259.5ZM1105.25 219.5L1109.25 219.5L1109.25 207.935L1102.1 217.029L1105.25 219.5ZM1086.25 150C1097.77 150 1107.66 154.068 1114.7 161.63C1121.74 169.209 1126.25 180.66 1126.25 196L1134.25 196C1134.25 179.09 1129.26 165.541 1120.55 156.182C1111.84 146.807 1099.73 142 1086.25 142L1086.25 150ZM1126.25 196C1126.25 223.08 1111.29 245.806 1091.11 254.85L1094.39 262.15C1117.71 251.694 1134.25 225.92 1134.25 196L1126.25 196ZM1091.09 254.859C1080.87 259.505 1065.3 262 1044.25 262L1044.25 270C1065.7 270 1082.63 267.495 1094.41 262.141L1091.09 254.859ZM1048.25 266L1048.25 259.5L1040.25 259.5L1040.25 266L1048.25 266ZM1044.25 263.5C1066.08 263.5 1082.3 259.779 1093.15 252.256C1104.28 244.545 1109.25 233.211 1109.25 219.5L1101.25 219.5C1101.25 231.039 1097.22 239.705 1088.6 245.681C1079.7 251.846 1065.42 255.5 1044.25 255.5L1044.25 263.5ZM1102.1 217.029C1101.92 217.259 1101.31 217.818 1099.95 218.531C1098.67 219.205 1096.99 219.882 1095 220.483C1091.01 221.688 1086.09 222.5 1081.25 222.5L1081.25 230.5C1086.91 230.5 1092.61 229.562 1097.31 228.142C1099.67 227.431 1101.84 226.576 1103.68 225.61C1105.44 224.682 1107.2 223.491 1108.4 221.971L1102.1 217.029ZM1081.25 222.5C1062 222.5 1048.25 207.091 1048.25 187.5L1040.25 187.5C1040.25 210.909 1057 230.5 1081.25 230.5L1081.25 222.5ZM1048.25 187.5C1048.25 176.433 1052.04 167.11 1058.53 160.566C1065.01 154.031 1074.44 150 1086.25 150L1086.25 142C1072.56 142 1060.99 146.719 1052.85 154.934C1044.71 163.14 1040.25 174.567 1040.25 187.5L1048.25 187.5Z" fill="#F39E1D"/>
</g>
<defs>
<clipPath id="clip0_233_13">
<rect width="1366" height="768" fill="white"/>
</clipPath>
</defs>
</svg>
