<svg width="222" height="357" viewBox="0 0 222 357" fill="none" xmlns="http://www.w3.org/2000/svg">
<path opacity="0.7" d="M116.75 270.5L113.068 262.287L113.047 262.297L113.026 262.307L116.75 270.5ZM68.25 278L59.25 278L59.25 287L68.25 287L68.25 278ZM68.25 271.5L68.25 262.5L59.25 262.5L59.25 271.5L68.25 271.5ZM129.25 231.5L138.25 231.5L138.25 205.478L122.173 225.94L129.25 231.5ZM110.25 167C120.55 167 129.056 170.606 135.034 177.035C141.047 183.501 145.25 193.642 145.25 208L163.25 208C163.25 190.108 157.953 175.249 148.216 164.778C138.444 154.269 124.95 149 110.25 149L110.25 167ZM145.25 208C145.25 233.306 131.273 254.127 113.068 262.287L120.431 278.713C145.727 267.373 163.25 239.694 163.25 208L145.25 208ZM113.026 262.307C103.773 266.512 89.0548 269 68.25 269L68.25 287C89.9452 287 107.727 284.488 120.474 278.693L113.026 262.307ZM77.25 278L77.25 271.5L59.25 271.5L59.25 278L77.25 278ZM68.25 280.5C90.4936 280.5 107.923 276.737 120.002 268.366C132.693 259.571 138.25 246.568 138.25 231.5L120.25 231.5C120.25 241.682 116.807 248.679 109.748 253.572C102.077 258.888 89.0064 262.5 68.25 262.5L68.25 280.5ZM122.173 225.94C122.625 225.365 122.723 225.528 121.625 226.106C120.69 226.598 119.318 227.164 117.553 227.697C114.011 228.767 109.575 229.5 105.25 229.5L105.25 247.5C111.425 247.5 117.614 246.483 122.759 244.928C125.338 244.149 127.825 243.183 130.008 242.035C132.027 240.972 134.5 239.385 136.327 237.06L122.173 225.94ZM105.25 229.5C89.1203 229.5 77.25 216.705 77.25 199.5L59.25 199.5C59.25 225.295 77.8797 247.5 105.25 247.5L105.25 229.5ZM77.25 199.5C77.25 189.6 80.6206 181.591 86.0785 176.087C91.5168 170.602 99.6253 167 110.25 167L110.25 149C95.3746 149 82.4832 154.148 73.2965 163.413C64.1294 172.659 59.25 185.4 59.25 199.5L77.25 199.5Z" fill="#300095"/>
</svg>
