<svg width="198" height="357" viewBox="0 0 198 357" fill="none" xmlns="http://www.w3.org/2000/svg">
<path opacity="0.7" d="M93.25 81.5L96.9315 89.7126L96.9529 89.703L96.9742 89.6933L93.25 81.5ZM141.75 74H150.75V65H141.75V74ZM141.75 80.5V89.5H150.75V80.5H141.75ZM80.75 120.5H71.75V146.522L87.8269 126.06L80.75 120.5ZM99.75 185C89.4502 185 80.9439 181.394 74.9658 174.965C68.9532 168.499 64.75 158.358 64.75 144H46.75C46.75 161.892 52.0468 176.751 61.7842 187.222C71.5561 197.731 85.0498 203 99.75 203V185ZM64.75 144C64.75 118.694 78.7268 97.8733 96.9315 89.7126L89.5685 73.2874C64.2732 84.6267 46.75 112.306 46.75 144H64.75ZM96.9742 89.6933C106.227 85.4877 120.945 83 141.75 83V65C120.055 65 102.273 67.5123 89.5258 73.3067L96.9742 89.6933ZM132.75 74V80.5H150.75V74H132.75ZM141.75 71.5C119.506 71.5 102.077 75.2629 89.9985 83.634C77.3073 92.4295 71.75 105.432 71.75 120.5H89.75C89.75 110.318 93.1927 103.321 100.252 98.4284C107.923 93.1121 120.994 89.5 141.75 89.5V71.5ZM87.8269 126.06C87.375 126.635 87.2766 126.472 88.3753 125.894C89.3096 125.402 90.6815 124.836 92.4469 124.303C95.9889 123.233 100.425 122.5 104.75 122.5L104.75 104.5C98.5749 104.5 92.3861 105.517 87.2406 107.072C84.6622 107.851 82.1747 108.817 79.9919 109.965C77.9734 111.028 75.5 112.615 73.6731 114.94L87.8269 126.06ZM104.75 122.5C120.88 122.5 132.75 135.295 132.75 152.5H150.75C150.75 126.705 132.12 104.5 104.75 104.5L104.75 122.5ZM132.75 152.5C132.75 162.4 129.379 170.409 123.922 175.913C118.483 181.398 110.375 185 99.75 185V203C114.625 203 127.517 197.852 136.703 188.587C145.871 179.341 150.75 166.6 150.75 152.5H132.75Z" fill="#300095"/>
</svg>
